<?xml version="1.0" encoding="UTF-8"?>
<!-- Generator: visioncortex VTracer 0.6.2 -->
<svg version="1.1" xmlns="http://www.w3.org/2000/svg" width="1280" height="725">
<path d="M0 0 C246.18 0 492.36 0 746 0 C746 0.33 746 0.66 746 1 C746.59949463 1.07516846 747.19898926 1.15033691 747.81665039 1.2277832 C750.56674049 1.57874001 753.31450777 1.9454924 756.0625 2.3125 C757.00544922 2.43044922 757.94839844 2.54839844 758.91992188 2.66992188 C764.48134682 3.42565558 768.94539732 4.57353861 774 7 C775.6826589 7.59715414 777.36999213 8.18136027 779.0625 8.75 C796.81316793 15.17822542 813.43582757 25.86692465 825 41 C825.70640625 41.92039063 826.4128125 42.84078125 827.140625 43.7890625 C827.83671875 44.72492187 828.5328125 45.66078125 829.25 46.625 C830.30960938 48.03652344 830.30960938 48.03652344 831.390625 49.4765625 C833 52 833 52 833 55 C833.66 55.33 834.32 55.66 835 56 C840.86956549 65.76323765 843.39383838 75.83245274 845 87 C845.33 87 845.66 87 846 87 C846.02287338 131.77463125 846.0405018 176.54926189 846.05106533 221.32389782 C846.05231608 226.60623137 846.0536104 231.88856491 846.05493164 237.17089844 C846.05519395 238.2225456 846.05545626 239.27419275 846.05572652 240.35770801 C846.06008151 257.40077127 846.06796812 274.44383117 846.0771528 291.48689243 C846.08649409 308.96594335 846.09205662 326.44499249 846.09408849 343.9240458 C846.09546273 354.71534445 846.09980798 365.50663359 846.10791647 376.29792932 C846.11318978 383.69120761 846.11480295 391.08448096 846.11350138 398.477761 C846.11285892 402.74752489 846.11386518 407.01727213 846.11920547 411.28703308 C846.1240551 415.19287721 846.12432828 419.09869342 846.12089889 423.0045388 C846.12047475 424.42048273 846.12175731 425.83642836 846.12488318 427.2523689 C846.1288754 429.17173995 846.12614442 431.09112152 846.12304783 433.01049423 C846.12361741 434.61215459 846.12361741 434.61215459 846.1241985 436.24617171 C846.01400216 438.68953286 845.69293828 440.66960501 845 443 C844.75121094 443.99515625 844.50242187 444.9903125 844.24609375 446.015625 C843.49739583 449.01041667 842.74869792 452.00520833 842 455 C841.34 455 840.68 455 840 455 C840.33 455.99 840.66 456.98 841 458 C838.63272178 466.19844148 833.26405159 476.22587423 827 482 C825.66104368 483.66215268 824.32869858 485.32963607 823 487 C821.96515209 488.25565093 820.92317457 489.50545209 819.875 490.75 C819.12863281 491.63945313 819.12863281 491.63945313 818.3671875 492.546875 C817 494 817 494 815 495 C813.98356502 495.98329036 812.98511411 496.98533247 812 498 C803.65014321 505.89606022 793.6873244 511.84381829 783 516 C782.34 515.67 781.68 515.34 781 515 C781 515.66 781 516.32 781 517 C776.12220363 518.69819577 771.21766441 520.27201896 766.25 521.6875 C765.36828125 521.93886719 764.4865625 522.19023438 763.578125 522.44921875 C760.97214493 523.00595086 758.65598537 523.10031599 756 523 C756 523.33 756 523.66 756 524 C754.71802734 523.98259766 754.71802734 523.98259766 753.41015625 523.96484375 C752.30542969 523.95582031 751.20070313 523.94679688 750.0625 523.9375 C748.40927734 523.92009766 748.40927734 523.92009766 746.72265625 523.90234375 C744.08552366 523.68737429 744.08552366 523.68737429 743 525 C741.15028635 525.08676695 739.29727824 525.10404781 737.44555664 525.09423828 C736.25664322 525.09158966 735.0677298 525.08894104 733.8427887 525.08621216 C732.54501999 525.08096527 731.24725128 525.07571838 729.91015625 525.0703125 C727.17901529 525.07602018 724.44791473 525.08916126 721.71679688 525.1015625 C717.3981092 525.11978717 713.08012973 525.12874462 708.76147461 525.09960938 C705.27141103 525.07690423 701.78289087 525.08871882 698.29293633 525.12261581 C696.33117505 525.13257879 694.36933548 525.10677173 692.4077301 525.08010864 C684.62069309 525.1841527 680.11928082 526.3504954 674.17356873 531.49923706 C671.57297156 533.29484619 670.09494454 533.29973203 667 533 C666.90847656 533.60714844 666.81695313 534.21429687 666.72265625 534.83984375 C665.80498744 537.58292944 664.89051472 538.07765807 662.4375 539.5625 C657.72083292 542.52377318 653.1371802 545.63832612 648.5625 548.8125 C647.16891031 549.77870322 645.77443537 550.74363136 644.37890625 551.70703125 C643.7763501 552.1244458 643.17379395 552.54186035 642.55297852 552.97192383 C641 554 641 554 639 555 C638.34 554.67 637.68 554.34 637 554 C637 554.99 637 555.98 637 557 C634 559 634 559 631 559 C631 559.66 631 560.32 631 561 C629.32296117 562.26004539 627.57900767 563.43129522 625.8125 564.5625 C624.71679688 565.27535156 623.62109375 565.98820313 622.4921875 566.72265625 C621.9156543 567.09664551 621.33912109 567.47063477 620.74511719 567.85595703 C612.75817395 573.09194136 604.999122 578.66982648 597.33984375 584.37109375 C595.2647477 585.81569317 593.26082898 586.88965204 591 588 C588.64769831 589.54946835 586.33708086 591.15132924 584.0234375 592.7578125 C582 594 582 594 580 594 C579.67 594.99 579.34 595.98 579 597 C576.63671875 598.7890625 576.63671875 598.7890625 573.6875 600.625 C572.72199219 601.23601563 571.75648438 601.84703125 570.76171875 602.4765625 C568.41596897 603.77054046 566.61149043 604.54097318 564 605 C564 605.66 564 606.32 564 607 C563.21625 607.268125 562.4325 607.53625 561.625 607.8125 C558.71885077 608.84814432 558.71885077 608.84814432 557 612 C556.01 612.33 555.02 612.66 554 613 C552.32346641 614.32090525 550.65975389 615.65807132 549 617 C544.87684971 619.98198184 540.75732164 622.95765423 536.37890625 625.5546875 C533.7870205 627.04785357 533.7870205 627.04785357 530.9375 629.5625 C528.50888212 631.57773612 526.74961675 632.63794495 524 634 C521.64769831 635.54946835 519.33708086 637.15132924 517.0234375 638.7578125 C515 640 515 640 513 640 C512.67 640.99 512.34 641.98 512 643 C509.73441486 644.65138559 507.50212126 646.15412657 505.125 647.625 C504.16787109 648.23601562 504.16787109 648.23601562 503.19140625 648.859375 C500.48961178 650.56280283 498.04073901 651.98642033 495 653 C494.175 653.825 493.35 654.65 492.5 655.5 C490 658 490 658 487 659 C485.32346641 660.32090525 483.65975389 661.65807132 482 663 C468.17312073 673 468.17312073 673 465 673 C465 673.66 465 674.32 465 675 C464.071875 675.433125 463.14375 675.86625 462.1875 676.3125 C459.46597307 677.75330838 458.05731109 678.84472171 456 681 C455.01 681.33 454.02 681.66 453 682 C452.34 681.67 451.68 681.34 451 681 C451 681.66 451 682.32 451 683 C450.34 683 449.68 683 449 683 C449 683.99 449 684.98 449 686 C446.69921875 687.859375 446.69921875 687.859375 443.6875 689.75 C442.70136719 690.38421875 441.71523438 691.0184375 440.69921875 691.671875 C438 693 438 693 435 692 C435.33 692.99 435.66 693.98 436 695 C434.27430361 696.13031603 432.54428261 697.25403107 430.8125 698.375 C429.84957031 699.00148438 428.88664063 699.62796875 427.89453125 700.2734375 C425.29583541 701.82353677 422.82746898 702.95007629 420 704 C419.34 704.350625 418.68 704.70125 418 705.0625 C415.61781034 706.1791514 413.62199431 706.73780057 411 707 C408.9375 706.125 408.9375 706.125 407 705 C406.0409375 704.8453125 406.0409375 704.8453125 405.0625 704.6875 C401.09116906 703.36372302 398.78417228 699.94641481 396.1875 696.8125 C393.33289332 690.05158944 394.98597808 682.79732399 397 676 C397.66 676 398.32 676 399 676 C398.96519531 675.27296875 398.93039062 674.5459375 398.89453125 673.796875 C398.68642353 666.06715951 399.79636075 659.39793177 402 652 C402.66 652 403.32 652 404 652 C403.94779297 650.7315625 403.94779297 650.7315625 403.89453125 649.4375 C403.72685832 642.41120594 404.199106 637.41871542 407 631 C407 629.68 407 628.36 407 627 C407.66 627 408.32 627 409 627 C408.98839844 626.26394531 408.97679687 625.52789063 408.96484375 624.76953125 C408.95130859 623.30580078 408.95130859 623.30580078 408.9375 621.8125 C408.92009766 620.36810547 408.92009766 620.36810547 408.90234375 618.89453125 C409.11209746 612.67743129 411.21581113 607.11461911 413.16015625 601.25390625 C413.99481086 598.02010491 414.15534226 595.32231994 414 592 C414.66 592 415.32 592 416 592 C415.79375 591.34 415.5875 590.68 415.375 590 C414.86296237 585.90369892 415.85966299 582.95764021 417 579 C417.66 579 418.32 579 419 579 C419.06058594 577.85660156 419.12117187 576.71320312 419.18359375 575.53515625 C419.26798428 574.04425695 419.35263302 572.55337225 419.4375 571.0625 C419.49647461 569.93038086 419.49647461 569.93038086 419.55664062 568.77539062 C419.88671875 563.11328125 419.88671875 563.11328125 421 562 C421.33926947 559.66752239 421.67240066 557.33414529 422 555 C422.33 554.34 422.66 553.68 423 553 C423 551.68 423 550.36 423 549 C423.66 549 424.32 549 425 549 C424.814375 547.9275 424.62875 546.855 424.4375 545.75 C424.03409869 542.29227445 424.09902707 541.15340524 425 538 C425.52427042 535.75079839 426.04483201 533.50073037 426.5625 531.25 C426.83191406 530.07953125 427.10132813 528.9090625 427.37890625 527.703125 C427.58386719 526.81109375 427.78882813 525.9190625 428 525 C426.64699976 525.00056958 426.64699976 525.00056958 425.26666617 525.00115067 C371.84858917 525.02351164 318.43051265 525.0406779 265.0124319 525.05106533 C258.60350277 525.05231609 252.19457365 525.05361041 245.78564453 525.05493164 C244.50970127 525.05519395 243.233758 525.05545626 241.91914979 525.05572652 C221.23866571 525.06008201 200.5581844 525.06796889 179.87770197 525.0771528 C158.6696101 525.0864927 137.46151968 525.09205633 116.25342584 525.09408849 C103.15891802 525.09546302 90.06441803 525.09980982 76.96991262 525.10791647 C67.99977576 525.11318807 59.02964296 525.11480334 50.05950466 525.11350138 C44.878372 525.11285865 39.69725306 525.1138682 34.51612282 525.11920547 C29.77758995 525.12405136 25.0390801 525.12433075 20.3005462 525.12089889 C18.581778 525.12047438 16.86300839 525.12176009 15.14424297 525.12488318 C12.81640297 525.12886874 10.48864714 525.12674979 8.16080856 525.12304783 C6.8652028 525.12342755 5.56959703 525.12380727 4.23473048 525.1241985 C1.58057714 525.02229144 -0.47666315 524.71396483 -3 524 C-3.99 524 -4.98 524 -6 524 C-8.74047485 524 -10.39599242 523.70057057 -13 523 C-14.22589844 522.70222656 -15.45179688 522.40445313 -16.71484375 522.09765625 C-18.12241958 521.75270105 -19.52997098 521.40764613 -20.9375 521.0625 C-21.64068359 520.89298828 -22.34386719 520.72347656 -23.06835938 520.54882812 C-26.84644292 519.61758541 -30.43172148 518.55719395 -34 517 C-34 516.34 -34 515.68 -34 515 C-34.99 515.33 -35.98 515.66 -37 516 C-39.1875 515.0625 -39.1875 515.0625 -41 514 C-41 513.34 -41 512.68 -41 512 C-41.87140625 511.90589844 -42.7428125 511.81179688 -43.640625 511.71484375 C-47.34385926 510.92682995 -49.60976823 509.64875896 -52.75 507.5625 C-53.69359375 506.94503906 -54.6371875 506.32757812 -55.609375 505.69140625 C-58 504 -58 504 -60 502 C-60.66 501.67 -61.32 501.34 -62 501 C-62 500.34 -62 499.68 -62 499 C-62.73089844 498.75894531 -63.46179688 498.51789063 -64.21484375 498.26953125 C-70.54558678 495.38384894 -76.06493077 488.6459689 -80 483 C-80 482.34 -80 481.68 -80 481 C-80.66 480.67 -81.32 480.34 -82 480 C-83.26047107 478.22336318 -84.46123378 476.40393256 -85.625 474.5625 C-86.25664062 473.57378906 -86.88828125 472.58507812 -87.5390625 471.56640625 C-89 469 -89 469 -89 467 C-89.66 466.67 -90.32 466.34 -91 466 C-91.8515625 463.49609375 -91.8515625 463.49609375 -92.625 460.4375 C-93.01558594 458.91962891 -93.01558594 458.91962891 -93.4140625 457.37109375 C-93.60742188 456.58863281 -93.80078125 455.80617188 -94 455 C-94.66 455 -95.32 455 -96 455 C-96.103125 453.9275 -96.20625 452.855 -96.3125 451.75 C-96.73262861 448.23967256 -97.54175525 445.00968323 -98.52000046 441.61539555 C-100.31610919 434.50451566 -100.41229787 427.70672123 -100.36749268 420.40367126 C-100.36952132 418.96414459 -100.3728657 417.52461929 -100.37739825 416.08509833 C-100.38598363 412.16156942 -100.37603993 408.23828018 -100.36285591 404.31477225 C-100.35190066 400.07152778 -100.35837981 395.828304 -100.36264038 391.58505249 C-100.3682577 383.28776853 -100.35799102 374.99057744 -100.34235242 366.6933093 C-100.32477927 357.03087788 -100.32339249 347.36846425 -100.32273683 337.70601935 C-100.321051 320.47236853 -100.30525994 303.23875992 -100.28125 286.00512695 C-100.25796161 269.2772588 -100.24382045 252.54941743 -100.24023438 235.8215332 C-100.24001161 234.78989463 -100.23978884 233.75825605 -100.23955932 232.69535571 C-100.23911673 230.61712695 -100.2386747 228.53889819 -100.23823325 226.46066943 C-100.23801369 225.43553244 -100.23779412 224.41039544 -100.2375679 223.35419369 C-100.23735192 222.33166307 -100.23713593 221.30913246 -100.2369134 220.25561607 C-100.23321581 204.31375037 -100.22185892 188.37188899 -100.2094375 172.43002803 C-100.20499997 166.64970662 -100.20156268 160.86938561 -100.19881538 155.08906316 C-100.19438864 145.92784283 -100.18663374 136.76663846 -100.17204097 127.60542821 C-100.16542354 123.4187444 -100.16036636 119.2320747 -100.15958023 115.04538536 C-100.15879568 111.2171666 -100.15341245 107.38898359 -100.14426073 103.56077594 C-100.14174423 102.17212883 -100.1409228 100.78347746 -100.14191952 99.39482843 C-100.14300881 97.51483313 -100.13740907 95.63483744 -100.13142776 93.75485134 C-100.13018127 92.70839174 -100.12893477 91.66193213 -100.1276505 90.58376163 C-100 88 -100 88 -99 85 C-98.34 85 -97.68 85 -97 85 C-97.185625 84.2575 -97.37125 83.515 -97.5625 82.75 C-98.01187494 79.92535752 -97.74437568 78.69274154 -97 76 C-96.85820312 75.27941406 -96.71640625 74.55882813 -96.5703125 73.81640625 C-95.67930066 69.30663577 -94.6707463 65.83194035 -92 62 C-91.67 61.34 -91.34 60.68 -91 60 C-91.33 59.67 -91.66 59.34 -92 59 C-88.25 52.125 -88.25 52.125 -86 51 C-85.29605388 49.68596724 -84.63654342 48.3479743 -84 47 C-82.5 44.25 -82.5 44.25 -81 42 C-80.34 42 -79.68 42 -79 42 C-78.77054688 41.28328125 -78.54109375 40.5665625 -78.3046875 39.828125 C-76.73703622 36.4299827 -74.77847468 34.37985324 -72.125 31.75 C-71.26132813 30.87859375 -70.39765625 30.0071875 -69.5078125 29.109375 C-67.17189953 27.14458839 -65.97187561 26.35938961 -63 26 C-63 25.34 -63 24.68 -63 24 C-62.38125 23.87625 -61.7625 23.7525 -61.125 23.625 C-58.80879168 23.12802644 -58.80879168 23.12802644 -57 21 C-56.67 20.34 -56.34 19.68 -56 19 C-55.01 18.67 -54.02 18.34 -53 18 C-51.66334628 17.00444256 -50.33038205 16.00392299 -49 15 C-43.83906834 12.12997695 -38.64617248 9.74762482 -33 8 C-32.319375 7.649375 -31.63875 7.29875 -30.9375 6.9375 C-28.62748311 5.81974989 -26.52757906 5.45955983 -24 5 C-22.906875 4.690625 -21.81375 4.38125 -20.6875 4.0625 C-13.93909984 2.32645122 -6.90903208 1.78816628 0 1 C0 0.67 0 0.34 0 0 Z M-95 70 C-94 72 -94 72 -94 72 Z M843 440 C844 442 844 442 844 442 Z " fill="#FDFDFD" transform="translate(262,8)"/>
<path d="M0 0 C246.18 0 492.36 0 746 0 C746 0.33 746 0.66 746 1 C746.59949463 1.07516846 747.19898926 1.15033691 747.81665039 1.2277832 C750.56674049 1.57874001 753.31450777 1.9454924 756.0625 2.3125 C757.00544922 2.43044922 757.94839844 2.54839844 758.91992188 2.66992188 C764.48134682 3.42565558 768.94539732 4.57353861 774 7 C775.6826589 7.59715414 777.36999213 8.18136027 779.0625 8.75 C796.81316793 15.17822542 813.43582757 25.86692465 825 41 C825.70640625 41.92039063 826.4128125 42.84078125 827.140625 43.7890625 C827.83671875 44.72492187 828.5328125 45.66078125 829.25 46.625 C830.30960938 48.03652344 830.30960938 48.03652344 831.390625 49.4765625 C833 52 833 52 833 55 C833.66 55.33 834.32 55.66 835 56 C840.86956549 65.76323765 843.39383838 75.83245274 845 87 C845.33 87 845.66 87 846 87 C846.02287338 131.77463125 846.0405018 176.54926189 846.05106533 221.32389782 C846.05231608 226.60623137 846.0536104 231.88856491 846.05493164 237.17089844 C846.05519395 238.2225456 846.05545626 239.27419275 846.05572652 240.35770801 C846.06008151 257.40077127 846.06796812 274.44383117 846.0771528 291.48689243 C846.08649409 308.96594335 846.09205662 326.44499249 846.09408849 343.9240458 C846.09546273 354.71534445 846.09980798 365.50663359 846.10791647 376.29792932 C846.11318978 383.69120761 846.11480295 391.08448096 846.11350138 398.477761 C846.11285892 402.74752489 846.11386518 407.01727213 846.11920547 411.28703308 C846.1240551 415.19287721 846.12432828 419.09869342 846.12089889 423.0045388 C846.12047475 424.42048273 846.12175731 425.83642836 846.12488318 427.2523689 C846.1288754 429.17173995 846.12614442 431.09112152 846.12304783 433.01049423 C846.12361741 434.61215459 846.12361741 434.61215459 846.1241985 436.24617171 C846.01400216 438.68953286 845.69293828 440.66960501 845 443 C844.75121094 443.99515625 844.50242187 444.9903125 844.24609375 446.015625 C843.49739583 449.01041667 842.74869792 452.00520833 842 455 C841.34 455 840.68 455 840 455 C840.33 455.99 840.66 456.98 841 458 C838.63272178 466.19844148 833.26405159 476.22587423 827 482 C825.66104368 483.66215268 824.32869858 485.32963607 823 487 C821.96515209 488.25565093 820.92317457 489.50545209 819.875 490.75 C819.12863281 491.63945313 819.12863281 491.63945313 818.3671875 492.546875 C817 494 817 494 815 495 C813.98356502 495.98329036 812.98511411 496.98533247 812 498 C803.65014321 505.89606022 793.6873244 511.84381829 783 516 C782.34 515.67 781.68 515.34 781 515 C781 515.66 781 516.32 781 517 C776.12220363 518.69819577 771.21766441 520.27201896 766.25 521.6875 C765.36828125 521.93886719 764.4865625 522.19023438 763.578125 522.44921875 C760.97214493 523.00595086 758.65598537 523.10031599 756 523 C756 523.33 756 523.66 756 524 C754.71802734 523.98259766 754.71802734 523.98259766 753.41015625 523.96484375 C752.30542969 523.95582031 751.20070313 523.94679688 750.0625 523.9375 C748.40927734 523.92009766 748.40927734 523.92009766 746.72265625 523.90234375 C744.08552366 523.68737429 744.08552366 523.68737429 743 525 C741.15028635 525.08676695 739.29727824 525.10404781 737.44555664 525.09423828 C736.25664322 525.09158966 735.0677298 525.08894104 733.8427887 525.08621216 C732.54501999 525.08096527 731.24725128 525.07571838 729.91015625 525.0703125 C727.17901529 525.07602018 724.44791473 525.08916126 721.71679688 525.1015625 C717.3981092 525.11978717 713.08012973 525.12874462 708.76147461 525.09960938 C705.27141103 525.07690423 701.78289087 525.08871882 698.29293633 525.12261581 C696.33117505 525.13257879 694.36933548 525.10677173 692.4077301 525.08010864 C684.62069309 525.1841527 680.11928082 526.3504954 674.17356873 531.49923706 C671.57297156 533.29484619 670.09494454 533.29973203 667 533 C666.90847656 533.60714844 666.81695313 534.21429687 666.72265625 534.83984375 C665.80498744 537.58292944 664.89051472 538.07765807 662.4375 539.5625 C657.72083292 542.52377318 653.1371802 545.63832612 648.5625 548.8125 C647.16891031 549.77870322 645.77443537 550.74363136 644.37890625 551.70703125 C643.7763501 552.1244458 643.17379395 552.54186035 642.55297852 552.97192383 C641 554 641 554 639 555 C638.34 554.67 637.68 554.34 637 554 C637 554.99 637 555.98 637 557 C634 559 634 559 631 559 C631 559.66 631 560.32 631 561 C629.32296117 562.26004539 627.57900767 563.43129522 625.8125 564.5625 C624.71679688 565.27535156 623.62109375 565.98820313 622.4921875 566.72265625 C621.9156543 567.09664551 621.33912109 567.47063477 620.74511719 567.85595703 C612.75817395 573.09194136 604.999122 578.66982648 597.33984375 584.37109375 C595.2647477 585.81569317 593.26082898 586.88965204 591 588 C588.64769831 589.54946835 586.33708086 591.15132924 584.0234375 592.7578125 C582 594 582 594 580 594 C579.67 594.99 579.34 595.98 579 597 C576.63671875 598.7890625 576.63671875 598.7890625 573.6875 600.625 C572.72199219 601.23601563 571.75648438 601.84703125 570.76171875 602.4765625 C568.41596897 603.77054046 566.61149043 604.54097318 564 605 C564 605.66 564 606.32 564 607 C563.21625 607.268125 562.4325 607.53625 561.625 607.8125 C558.71885077 608.84814432 558.71885077 608.84814432 557 612 C556.01 612.33 555.02 612.66 554 613 C552.32346641 614.32090525 550.65975389 615.65807132 549 617 C544.87684971 619.98198184 540.75732164 622.95765423 536.37890625 625.5546875 C533.7870205 627.04785357 533.7870205 627.04785357 530.9375 629.5625 C528.50888212 631.57773612 526.74961675 632.63794495 524 634 C521.64769831 635.54946835 519.33708086 637.15132924 517.0234375 638.7578125 C515 640 515 640 513 640 C512.67 640.99 512.34 641.98 512 643 C509.73441486 644.65138559 507.50212126 646.15412657 505.125 647.625 C504.16787109 648.23601562 504.16787109 648.23601562 503.19140625 648.859375 C500.48961178 650.56280283 498.04073901 651.98642033 495 653 C494.175 653.825 493.35 654.65 492.5 655.5 C490 658 490 658 487 659 C485.32346641 660.32090525 483.65975389 661.65807132 482 663 C468.17312073 673 468.17312073 673 465 673 C465 673.66 465 674.32 465 675 C464.071875 675.433125 463.14375 675.86625 462.1875 676.3125 C459.46597307 677.75330838 458.05731109 678.84472171 456 681 C455.01 681.33 454.02 681.66 453 682 C452.34 681.67 451.68 681.34 451 681 C451 681.66 451 682.32 451 683 C450.34 683 449.68 683 449 683 C449 683.99 449 684.98 449 686 C446.69921875 687.859375 446.69921875 687.859375 443.6875 689.75 C442.70136719 690.38421875 441.71523438 691.0184375 440.69921875 691.671875 C438 693 438 693 435 692 C435.33 692.99 435.66 693.98 436 695 C434.27430361 696.13031603 432.54428261 697.25403107 430.8125 698.375 C429.84957031 699.00148438 428.88664063 699.62796875 427.89453125 700.2734375 C425.29583541 701.82353677 422.82746898 702.95007629 420 704 C419.34 704.350625 418.68 704.70125 418 705.0625 C415.61781034 706.1791514 413.62199431 706.73780057 411 707 C408.9375 706.125 408.9375 706.125 407 705 C406.0409375 704.8453125 406.0409375 704.8453125 405.0625 704.6875 C401.09116906 703.36372302 398.78417228 699.94641481 396.1875 696.8125 C393.33289332 690.05158944 394.98597808 682.79732399 397 676 C397.66 676 398.32 676 399 676 C398.96519531 675.27296875 398.93039062 674.5459375 398.89453125 673.796875 C398.68642353 666.06715951 399.79636075 659.39793177 402 652 C402.66 652 403.32 652 404 652 C403.94779297 650.7315625 403.94779297 650.7315625 403.89453125 649.4375 C403.72685832 642.41120594 404.199106 637.41871542 407 631 C407 629.68 407 628.36 407 627 C407.66 627 408.32 627 409 627 C408.98839844 626.26394531 408.97679687 625.52789063 408.96484375 624.76953125 C408.95130859 623.30580078 408.95130859 623.30580078 408.9375 621.8125 C408.92009766 620.36810547 408.92009766 620.36810547 408.90234375 618.89453125 C409.11209746 612.67743129 411.21581113 607.11461911 413.16015625 601.25390625 C413.99481086 598.02010491 414.15534226 595.32231994 414 592 C414.66 592 415.32 592 416 592 C415.79375 591.34 415.5875 590.68 415.375 590 C414.86296237 585.90369892 415.85966299 582.95764021 417 579 C417.66 579 418.32 579 419 579 C419.06058594 577.85660156 419.12117187 576.71320312 419.18359375 575.53515625 C419.26798428 574.04425695 419.35263302 572.55337225 419.4375 571.0625 C419.49647461 569.93038086 419.49647461 569.93038086 419.55664062 568.77539062 C419.88671875 563.11328125 419.88671875 563.11328125 421 562 C421.33926947 559.66752239 421.67240066 557.33414529 422 555 C422.33 554.34 422.66 553.68 423 553 C423 551.68 423 550.36 423 549 C423.66 549 424.32 549 425 549 C424.814375 547.9275 424.62875 546.855 424.4375 545.75 C424.03409869 542.29227445 424.09902707 541.15340524 425 538 C425.52427042 535.75079839 426.04483201 533.50073037 426.5625 531.25 C426.83191406 530.07953125 427.10132813 528.9090625 427.37890625 527.703125 C427.58386719 526.81109375 427.78882813 525.9190625 428 525 C426.64699976 525.00056958 426.64699976 525.00056958 425.26666617 525.00115067 C371.84858917 525.02351164 318.43051265 525.0406779 265.0124319 525.05106533 C258.60350277 525.05231609 252.19457365 525.05361041 245.78564453 525.05493164 C244.50970127 525.05519395 243.233758 525.05545626 241.91914979 525.05572652 C221.23866571 525.06008201 200.5581844 525.06796889 179.87770197 525.0771528 C158.6696101 525.0864927 137.46151968 525.09205633 116.25342584 525.09408849 C103.15891802 525.09546302 90.06441803 525.09980982 76.96991262 525.10791647 C67.99977576 525.11318807 59.02964296 525.11480334 50.05950466 525.11350138 C44.878372 525.11285865 39.69725306 525.1138682 34.51612282 525.11920547 C29.77758995 525.12405136 25.0390801 525.12433075 20.3005462 525.12089889 C18.581778 525.12047438 16.86300839 525.12176009 15.14424297 525.12488318 C12.81640297 525.12886874 10.48864714 525.12674979 8.16080856 525.12304783 C6.8652028 525.12342755 5.56959703 525.12380727 4.23473048 525.1241985 C1.58057714 525.02229144 -0.47666315 524.71396483 -3 524 C-3.99 524 -4.98 524 -6 524 C-8.74047485 524 -10.39599242 523.70057057 -13 523 C-14.22589844 522.70222656 -15.45179688 522.40445313 -16.71484375 522.09765625 C-18.12241958 521.75270105 -19.52997098 521.40764613 -20.9375 521.0625 C-21.64068359 520.89298828 -22.34386719 520.72347656 -23.06835938 520.54882812 C-26.84644292 519.61758541 -30.43172148 518.55719395 -34 517 C-34 516.34 -34 515.68 -34 515 C-34.99 515.33 -35.98 515.66 -37 516 C-39.1875 515.0625 -39.1875 515.0625 -41 514 C-41 513.34 -41 512.68 -41 512 C-41.87140625 511.90589844 -42.7428125 511.81179688 -43.640625 511.71484375 C-47.34385926 510.92682995 -49.60976823 509.64875896 -52.75 507.5625 C-53.69359375 506.94503906 -54.6371875 506.32757812 -55.609375 505.69140625 C-58 504 -58 504 -60 502 C-60.66 501.67 -61.32 501.34 -62 501 C-62 500.34 -62 499.68 -62 499 C-62.73089844 498.75894531 -63.46179688 498.51789063 -64.21484375 498.26953125 C-70.54558678 495.38384894 -76.06493077 488.6459689 -80 483 C-80 482.34 -80 481.68 -80 481 C-80.66 480.67 -81.32 480.34 -82 480 C-83.26047107 478.22336318 -84.46123378 476.40393256 -85.625 474.5625 C-86.25664062 473.57378906 -86.88828125 472.58507812 -87.5390625 471.56640625 C-89 469 -89 469 -89 467 C-89.66 466.67 -90.32 466.34 -91 466 C-91.8515625 463.49609375 -91.8515625 463.49609375 -92.625 460.4375 C-93.01558594 458.91962891 -93.01558594 458.91962891 -93.4140625 457.37109375 C-93.60742188 456.58863281 -93.80078125 455.80617188 -94 455 C-94.66 455 -95.32 455 -96 455 C-96.103125 453.9275 -96.20625 452.855 -96.3125 451.75 C-96.73262861 448.23967256 -97.54175525 445.00968323 -98.52000046 441.61539555 C-100.31610919 434.50451566 -100.41229787 427.70672123 -100.36749268 420.40367126 C-100.36952132 418.96414459 -100.3728657 417.52461929 -100.37739825 416.08509833 C-100.38598363 412.16156942 -100.37603993 408.23828018 -100.36285591 404.31477225 C-100.35190066 400.07152778 -100.35837981 395.828304 -100.36264038 391.58505249 C-100.3682577 383.28776853 -100.35799102 374.99057744 -100.34235242 366.6933093 C-100.32477927 357.03087788 -100.32339249 347.36846425 -100.32273683 337.70601935 C-100.321051 320.47236853 -100.30525994 303.23875992 -100.28125 286.00512695 C-100.25796161 269.2772588 -100.24382045 252.54941743 -100.24023438 235.8215332 C-100.24001161 234.78989463 -100.23978884 233.75825605 -100.23955932 232.69535571 C-100.23911673 230.61712695 -100.2386747 228.53889819 -100.23823325 226.46066943 C-100.23801369 225.43553244 -100.23779412 224.41039544 -100.2375679 223.35419369 C-100.23735192 222.33166307 -100.23713593 221.30913246 -100.2369134 220.25561607 C-100.23321581 204.31375037 -100.22185892 188.37188899 -100.2094375 172.43002803 C-100.20499997 166.64970662 -100.20156268 160.86938561 -100.19881538 155.08906316 C-100.19438864 145.92784283 -100.18663374 136.76663846 -100.17204097 127.60542821 C-100.16542354 123.4187444 -100.16036636 119.2320747 -100.15958023 115.04538536 C-100.15879568 111.2171666 -100.15341245 107.38898359 -100.14426073 103.56077594 C-100.14174423 102.17212883 -100.1409228 100.78347746 -100.14191952 99.39482843 C-100.14300881 97.51483313 -100.13740907 95.63483744 -100.13142776 93.75485134 C-100.13018127 92.70839174 -100.12893477 91.66193213 -100.1276505 90.58376163 C-100 88 -100 88 -99 85 C-98.34 85 -97.68 85 -97 85 C-97.185625 84.2575 -97.37125 83.515 -97.5625 82.75 C-98.01187494 79.92535752 -97.74437568 78.69274154 -97 76 C-96.85820312 75.27941406 -96.71640625 74.55882813 -96.5703125 73.81640625 C-95.67930066 69.30663577 -94.6707463 65.83194035 -92 62 C-91.67 61.34 -91.34 60.68 -91 60 C-91.33 59.67 -91.66 59.34 -92 59 C-88.25 52.125 -88.25 52.125 -86 51 C-85.29605388 49.68596724 -84.63654342 48.3479743 -84 47 C-82.5 44.25 -82.5 44.25 -81 42 C-80.34 42 -79.68 42 -79 42 C-78.77054688 41.28328125 -78.54109375 40.5665625 -78.3046875 39.828125 C-76.73703622 36.4299827 -74.77847468 34.37985324 -72.125 31.75 C-71.26132813 30.87859375 -70.39765625 30.0071875 -69.5078125 29.109375 C-67.17189953 27.14458839 -65.97187561 26.35938961 -63 26 C-63 25.34 -63 24.68 -63 24 C-62.38125 23.87625 -61.7625 23.7525 -61.125 23.625 C-58.80879168 23.12802644 -58.80879168 23.12802644 -57 21 C-56.67 20.34 -56.34 19.68 -56 19 C-55.01 18.67 -54.02 18.34 -53 18 C-51.66334628 17.00444256 -50.33038205 16.00392299 -49 15 C-43.83906834 12.12997695 -38.64617248 9.74762482 -33 8 C-32.319375 7.649375 -31.63875 7.29875 -30.9375 6.9375 C-28.62748311 5.81974989 -26.52757906 5.45955983 -24 5 C-22.906875 4.690625 -21.81375 4.38125 -20.6875 4.0625 C-13.93909984 2.32645122 -6.90903208 1.78816628 0 1 C0 0.67 0 0.34 0 0 Z M-51.99609375 58.3359375 C-55.56307843 63.11839802 -58.25447374 68.25673834 -60.8125 73.625 C-61.10286133 74.23432373 -61.39322266 74.84364746 -61.69238281 75.47143555 C-65.9139507 84.748169 -66.29231937 93.03785754 -66.26742554 103.07925415 C-66.27116569 104.51161385 -66.27576867 105.94397151 -66.28115618 107.37632596 C-66.29335678 111.29899384 -66.29312919 115.22157623 -66.29076743 119.14425874 C-66.29035851 123.38029425 -66.30140567 127.61630264 -66.31088257 131.85232544 C-66.32747808 140.14713285 -66.33299148 148.44191184 -66.33410732 156.73673446 C-66.33505861 163.48223275 -66.33917295 170.22772168 -66.34550858 176.97321701 C-66.36311807 196.11249718 -66.37234806 215.25175494 -66.37084763 234.39104326 C-66.37076772 235.42231637 -66.3706878 236.45358947 -66.37060547 237.51611328 C-66.37052371 238.54865086 -66.37044195 239.58118845 -66.37035771 240.64501505 C-66.36954519 257.37045773 -66.38867501 274.09581028 -66.4168822 290.82122691 C-66.44563963 308.00904281 -66.45942088 325.1968148 -66.45769465 342.38465536 C-66.45703167 352.02851568 -66.46248335 361.67228154 -66.48405075 371.31612015 C-66.50230032 379.52884655 -66.50657905 387.74143569 -66.4930319 395.95417364 C-66.48652089 400.14026056 -66.48631703 404.32608442 -66.5037384 408.512146 C-66.51955775 412.35296394 -66.51651626 416.19331219 -66.49917014 420.03411929 C-66.49468717 422.06339861 -66.50968778 424.09269301 -66.52564943 426.12191451 C-66.3886714 444.5169646 -59.9089091 459.0910909 -47 472 C-46.37351562 472.62648438 -45.74703125 473.25296875 -45.1015625 473.8984375 C-26.69891116 491.05871576 -4.59449429 494.31652722 19.56234741 494.25828552 C21.43283919 494.2611439 23.30332978 494.26488393 25.17381823 494.26942402 C30.28865495 494.27936264 35.40342275 494.27704292 40.51826453 494.27269709 C46.04379052 494.27021333 51.56929875 494.27929857 57.09481812 494.28707886 C66.66119063 494.29910449 76.22754652 494.30423075 85.79392624 494.30496025 C99.63173034 494.30628734 113.46949411 494.32141079 127.30728395 494.34045542 C149.76849046 494.37127255 172.22969798 494.39547995 194.69091797 494.41333008 C195.69815253 494.41413527 195.69815253 494.41413527 196.72573526 494.41495672 C212.40297127 494.42746027 228.08020776 494.4382417 243.75744629 494.44702148 C249.20206707 494.45009186 254.64668784 494.45318409 260.09130859 494.45629883 C260.76334517 494.45668064 261.43538175 494.45706246 262.12778307 494.45745584 C285.19207758 494.47062816 308.25634391 494.49529006 331.32061732 494.53004223 C345.12838821 494.55034882 358.93609643 494.56061934 372.74388237 494.55805302 C382.19657582 494.55701964 391.64921961 494.5666277 401.10189573 494.58469205 C406.55882508 494.59475638 412.01564459 494.59984429 417.47257996 494.59192467 C422.46493665 494.58476515 427.45707904 494.59128473 432.44940837 494.60881007 C434.25802369 494.61270382 436.06665846 494.61149743 437.8752654 494.60475319 C440.32916398 494.59632627 442.78232715 494.60625671 445.23618126 494.62082577 C445.94215315 494.61397738 446.64812503 494.60712899 447.37549001 494.60007307 C452.66351671 494.66162631 456.67782159 495.96404358 460.6796875 499.47265625 C464.97486955 505.18552911 464.58200666 510.68094954 463.65450478 517.56390762 C463.17417954 520.27824372 462.62978213 522.97153257 462.05981445 525.66845703 C461.85326736 526.68475189 461.64672028 527.70104675 461.43391418 528.74813843 C460.75299371 532.08667664 460.05824839 535.42217262 459.36328125 538.7578125 C458.88116864 541.1072384 458.39991652 543.45684102 457.91947937 545.80661011 C456.65269703 551.99035802 455.374124 558.17161042 454.09307861 564.35241699 C452.80808086 570.56288782 451.53446112 576.77568934 450.25976562 582.98828125 C448.59368175 591.10100292 446.92535019 599.21325025 445.24808025 607.32366753 C444.81192619 609.43299634 444.37655163 611.54248651 443.94200611 613.65214729 C442.83795487 619.00165336 441.71343127 624.34580571 440.55819702 629.68450928 C440.32520747 630.77172712 440.09221792 631.85894497 439.85216808 632.97910881 C439.41001087 635.03924417 438.96229581 637.09819787 438.50791645 639.15567207 C437.42580197 644.22158109 436.75122782 648.81927667 437 654 C440.82254172 652.61562003 443.95480055 650.84687544 447.3125 648.5625 C448.36566406 647.84835937 449.41882813 647.13421875 450.50390625 646.3984375 C451.66966594 645.59953457 452.83501432 644.8000312 454 644 C454.92014893 643.37013184 454.92014893 643.37013184 455.85888672 642.72753906 C459.89005285 639.96759075 463.91404425 637.19734436 467.93554688 634.42333984 C471.28793784 632.11202961 474.64410896 629.80622393 478 627.5 C481.96536928 624.77420081 485.93047902 622.04802675 489.89453125 619.3203125 C497.89670733 613.81481536 505.90854995 608.32365612 513.92626953 602.84082031 C521.62667659 597.57384816 529.31458053 592.28880755 537 587 C546.3018768 580.59880921 555.61200944 574.20996163 564.93286133 567.83642578 C570.61373429 563.95099631 576.28752562 560.05542372 581.95678711 556.15307617 C585.4370111 553.7585686 588.92081395 551.36948565 592.41015625 548.98828125 C600.06929739 543.76048442 607.71102152 538.51117455 615.3112793 533.19799805 C625.34150153 526.18680374 635.44630572 519.30742537 645.66870117 512.57885742 C651.30183254 508.85746421 656.76258872 505.00037643 662.11035156 500.87695312 C671.2358479 494.94954388 679.27468201 494.42333442 689.953125 494.4609375 C691.5009702 494.45100794 693.04880362 494.43905821 694.59661865 494.42520142 C698.65550789 494.39298522 702.71412786 494.38246291 706.77313232 494.37835693 C713.25292822 494.36957478 719.73250418 494.33355598 726.21212006 494.2861824 C728.45247534 494.2737869 730.69254044 494.27433903 732.93292236 494.27645874 C757.23001806 494.20787822 776.43002693 488.2478569 794 471 C795.06734375 469.96939453 795.06734375 469.96939453 796.15625 468.91796875 C810.76694371 453.77342277 812.1585328 435.20069653 812.13371277 415.1741333 C812.13558482 413.80589573 812.13788708 412.43765869 812.14057809 411.06942248 C812.14665376 407.33790584 812.14656753 403.60641174 812.14538372 399.87489128 C812.14517863 395.83931005 812.15070866 391.80373586 812.15544128 387.76815796 C812.16372496 379.87248194 812.16649508 371.9768134 812.16705366 364.0811334 C812.16752988 357.65942182 812.16958987 351.23771269 812.17275429 344.81600189 C812.18155436 326.58491579 812.18617464 308.35383557 812.18542381 290.12274733 C812.18538386 289.14122509 812.1853439 288.15970284 812.18530273 287.1484375 C812.18526185 286.16570857 812.18522097 285.18297964 812.18517885 284.17047104 C812.18477249 268.24777249 812.19434128 252.3250976 812.2084411 236.40240589 C812.22282475 220.02923386 812.2297102 203.65607335 812.22884732 187.28289485 C812.22851606 178.10017951 812.23123227 168.91748898 812.24202538 159.73477936 C812.25115654 151.9163435 812.25328419 144.0979437 812.24651595 136.27950481 C812.24326401 132.29587066 812.24314578 128.31230559 812.2518692 124.32867813 C812.25979416 120.67185442 812.25824243 117.01515389 812.24958507 113.35833296 C812.24735009 111.43035511 812.25483132 109.50237325 812.26282471 107.57441068 C812.17356697 84.6802203 806.33364756 67.04605014 790.75 50.125 C775.695098 35.86525127 755.16273272 30.66963416 734.98816967 30.74552441 C733.71507984 30.74231793 732.44199002 30.73911145 731.13032171 30.73580781 C727.61098746 30.72723014 724.09176056 30.73099652 720.57242479 30.73686353 C716.73810773 30.74104786 712.90380977 30.73362396 709.06949741 30.72771102 C702.35398011 30.718959 695.63849331 30.71763336 688.92297173 30.72121429 C678.93654302 30.72652531 668.9501438 30.72042198 658.9637183 30.71213136 C640.08971266 30.69689306 621.21572044 30.69518612 602.34170993 30.69765439 C587.76686048 30.69948723 573.19201542 30.69772762 558.61716652 30.69342995 C556.52301191 30.69282755 554.42885731 30.69222635 552.3347027 30.69162634 C549.17898928 30.69071909 546.02327585 30.68981042 542.86756243 30.68889399 C513.52820989 30.68046469 484.188859 30.67612862 454.84950542 30.68030071 C453.74352232 30.68045709 452.63753922 30.68061346 451.49804148 30.68077458 C445.89251664 30.68158036 440.2869918 30.68242613 434.68146696 30.68328788 C433.56819765 30.68345897 432.45492834 30.68363006 431.3079236 30.68380633 C429.05662298 30.68415298 426.80532235 30.68450151 424.55402173 30.68485192 C389.52241404 30.69020933 354.49083151 30.68227804 319.45922852 30.66381836 C280.09799862 30.64310149 240.73678432 30.63237503 201.37554866 30.63639385 C197.17845937 30.63678919 192.98137007 30.63715074 188.78428078 30.63749123 C187.75085649 30.63758196 186.71743221 30.63767269 185.65269204 30.63776617 C170.05370451 30.63893203 154.45473273 30.63228471 138.85574913 30.62167931 C121.11488819 30.60962996 103.37406194 30.60806531 85.63320049 30.62046947 C75.70690106 30.62709924 65.78068457 30.62546427 55.85439177 30.61188096 C49.22031756 30.60363541 42.58630546 30.60633539 35.9522363 30.61785623 C32.17478776 30.62411156 28.39750102 30.62571633 24.62006184 30.61399289 C20.54303046 30.60145644 16.46638375 30.61230993 12.38935375 30.62526989 C11.22762153 30.61796054 10.06588931 30.6106512 8.86895308 30.60312036 C-14.48106815 30.75679258 -36.74188684 40.4846347 -51.99609375 58.3359375 Z M-95 70 C-94 72 -94 72 -94 72 Z M843 440 C844 442 844 442 844 442 Z " fill="#FB6F0B" transform="translate(262,8)"/>
<path d="M0 0 C1.36095543 -0.00845947 1.36095543 -0.00845947 2.74940491 -0.01708984 C3.74857437 -0.01304138 4.74774384 -0.00899292 5.77719116 -0.00482178 C7.3537574 -0.01007874 7.3537574 -0.01007874 8.96217346 -0.01544189 C12.46617099 -0.02429685 15.96996859 -0.01838425 19.47396851 -0.01165771 C21.92793822 -0.01300629 24.38190767 -0.01494843 26.83587646 -0.01745605 C32.00953689 -0.02041481 37.18312856 -0.01609667 42.35678101 -0.0067749 C48.89237354 0.00444276 55.42780017 -0.00201259 61.96338654 -0.01365185 C147.364762 -0.14309558 147.364762 -0.14309558 170.68490601 11.25396729 C171.8624646 11.8050415 171.8624646 11.8050415 173.06381226 12.36724854 C187.09224509 19.46685541 196.50119391 31.75721593 201.77474976 46.30865479 C206.37088619 61.18198899 206.03028199 81.96204567 199.68490601 96.25396729 C199.26080444 97.21689697 198.83670288 98.17982666 198.39974976 99.17193604 C191.59534336 112.91342528 179.85094574 122.88853932 166.68490601 130.25396729 C167.59369507 130.52209229 168.50248413 130.79021729 169.43881226 131.06646729 C189.92014305 137.4524412 206.56209058 147.54116765 216.93490601 167.06646729 C226.45428584 186.9937024 225.90087893 211.45525822 218.87240601 232.12896729 C218.17630475 233.85103867 217.44702563 235.56007812 216.68490601 237.25396729 C216.28787476 238.14213135 215.89084351 239.03029541 215.48178101 239.94537354 C206.35049948 258.3916118 187.76074819 272.77858783 168.91146851 280.16412354 C150.29250609 286.4530951 130.97454361 288.41719404 111.40487671 288.38336182 C110.13676651 288.38511414 108.86865631 288.38686646 107.56211853 288.38867188 C104.12484513 288.39318109 100.68760215 288.39148519 97.2503283 288.38829279 C93.6420282 288.38574125 90.03373051 288.38811389 86.4254303 288.38967896 C80.38113949 288.39148998 74.33686096 288.38911979 68.29257202 288.38433838 C61.29979329 288.37887065 54.30704361 288.38068078 47.31426555 288.38616478 C41.29791938 288.39069414 35.28158197 288.39134816 29.26523465 288.38872612 C25.67659254 288.38716584 22.08796413 288.38696333 18.49932289 288.3902626 C14.51340209 288.39367266 10.52751431 288.38895471 6.54159546 288.38336182 C5.34844727 288.38538605 4.15529907 288.38741028 2.92599487 288.38949585 C1.30918571 288.38526611 1.30918571 288.38526611 -0.34028625 288.38095093 C-1.28244334 288.3805739 -2.22460043 288.38019688 -3.19530773 288.37980843 C-5.31509399 288.25396729 -5.31509399 288.25396729 -6.31509399 287.25396729 C-6.41374673 285.73375742 -6.44248683 284.20896244 -6.44372845 282.68555546 C-6.44695289 281.69203007 -6.45017734 280.69850468 -6.4534995 279.67487246 C-6.45195089 278.57022927 -6.45040229 277.46558609 -6.44880676 276.32746887 C-6.45107232 275.16421316 -6.45333788 274.00095744 -6.45567209 272.80245155 C-6.46093035 269.55911304 -6.46165306 266.31580913 -6.46047771 263.07246768 C-6.46027444 259.58024943 -6.46578535 256.08803958 -6.47053528 252.5958252 C-6.47885846 245.74856473 -6.48159087 238.90131287 -6.48214766 232.05404777 C-6.48262202 226.49106231 -6.48467279 220.9280797 -6.48784828 215.36509514 C-6.49665936 199.60993757 -6.50126694 183.85478683 -6.50051781 168.09962679 C-6.50047785 167.2494239 -6.5004379 166.39922101 -6.50039673 165.52325439 C-6.50035585 164.67201931 -6.50031497 163.82078422 -6.50027285 162.94375413 C-6.49986623 149.1423564 -6.50943844 135.34098593 -6.5235351 121.53959609 C-6.53787898 107.38501749 -6.54480638 93.23045221 -6.54394132 79.07586616 C-6.54360866 71.12246579 -6.54638566 63.169094 -6.55711937 55.21570015 C-6.56619829 48.44480951 -6.56842122 41.67396041 -6.56160995 34.90306634 C-6.55833148 31.44565261 -6.55833545 27.98831868 -6.5669632 24.5309124 C-6.57461038 20.78968534 -6.57008691 17.04867137 -6.56233215 13.30744934 C-6.56747572 12.20503688 -6.57261928 11.10262442 -6.57791871 9.96680552 C-6.57331991 8.97067238 -6.56872112 7.97453924 -6.56398296 6.94822025 C-6.56420033 6.08375941 -6.5644177 5.21929857 -6.56464165 4.32864195 C-6.05957376 0.1296382 -3.64003167 0.00347485 0 0 Z " fill="#676767" transform="translate(245.31509399414063,87.74603271484375)"/>
<path d="M0 0 C0.185625 -1.670625 0.185625 -1.670625 0.375 -3.375 C1 -7 1 -7 3 -9 C5.62550354 -9.24723816 5.62550354 -9.24723816 8.99438477 -9.24291992 C10.25231339 -9.24599655 11.510242 -9.24907318 12.80628967 -9.25224304 C14.18466372 -9.24534582 15.56303596 -9.23807889 16.94140625 -9.23046875 C18.3486273 -9.22927704 19.75584915 -9.22882377 21.16307068 -9.2290802 C24.11291479 -9.22751513 27.06263758 -9.21922299 30.01245117 -9.20581055 C33.80131829 -9.18880504 37.59005217 -9.18499663 41.37895298 -9.18575573 C44.28449281 -9.18548437 47.19000328 -9.18000893 50.09553337 -9.17275429 C51.49303909 -9.16956334 52.89054816 -9.16759922 54.28805733 -9.16686058 C56.23705357 -9.16470242 58.18603752 -9.15517313 60.13500977 -9.14526367 C61.24594498 -9.14145187 62.35688019 -9.13764008 63.5014801 -9.13371277 C66 -9 66 -9 67 -8 C67.10445626 -5.40650649 67.14332476 -2.83940981 67.14044189 -0.24519348 C67.14341302 0.57726673 67.14638414 1.39972694 67.1494453 2.24711019 C67.15817275 5.02567143 67.15964405 7.80418978 67.16113281 10.58276367 C67.16575879 12.56689548 67.17078315 14.55102639 67.17617798 16.53515625 C67.18934082 21.94755828 67.19575656 27.35994787 67.20018864 32.77236342 C67.20311819 36.16009103 67.20722317 39.54781525 67.21169281 42.93554115 C67.22538907 53.55129805 67.23504056 64.16704718 67.2388947 74.7828123 C67.24335573 87.0022707 67.26080304 99.22161613 67.2898953 111.44104022 C67.31162558 120.90035163 67.32160529 130.35963157 67.32293582 139.81896764 C67.32397743 145.45913582 67.32974434 151.09919814 67.34775543 156.73933983 C67.3644289 162.0654914 67.36629977 167.39145985 67.35761642 172.71762848 C67.35685575 174.65475015 67.36105764 176.59188243 67.37107468 178.52897835 C67.52410217 210.01477001 62.63805688 240.82787141 39.88671875 264.16796875 C14.12439292 288.51736994 -24.26836998 290.93403764 -57.85791016 290.109375 C-114.87538239 288.12461761 -114.87538239 288.12461761 -123 280 C-123.10382589 278.38419992 -123.13852243 276.76389376 -123.14526367 275.14477539 C-123.15164352 274.1102272 -123.15802338 273.07567902 -123.16459656 272.00978088 C-123.16570938 270.88377975 -123.1668222 269.75777863 -123.16796875 268.59765625 C-123.17129715 267.44962021 -123.17462555 266.30158417 -123.17805481 265.11875916 C-123.18312901 262.68505251 -123.18546298 260.25133888 -123.18530273 257.81762695 C-123.18748854 254.08207808 -123.20563746 250.34682465 -123.22460938 246.61132812 C-123.22754325 244.25260518 -123.22952808 241.89388083 -123.23046875 239.53515625 C-123.23765427 238.41117935 -123.24483978 237.28720245 -123.25224304 236.12916565 C-123.24916641 235.0914653 -123.24608978 234.05376495 -123.24291992 232.98461914 C-123.24434494 232.06830215 -123.24576996 231.15198517 -123.24723816 230.207901 C-123 228 -123 228 -121 226 C-114.42828279 225.66355492 -108.19536602 228.11222861 -102.125 230.3125 C-86.13385558 235.76126189 -71.73545266 238.36598458 -54.8125 238.5 C-54.09937653 238.51062469 -53.38625305 238.52124939 -52.65151978 238.53219604 C-39.08130258 238.68703097 -23.4483702 237.64292838 -13 228 C-3.99050222 218.74645262 -1.80030715 206.57788953 -1.9375 194.125 C-1.94426758 192.949375 -1.94426758 192.949375 -1.95117188 191.75 C-1.96285907 189.83329986 -1.98079092 187.91663952 -2 186 C-5.95154662 188.2380867 -9.8448894 190.51658826 -13.6875 192.9375 C-27.79526403 201.38935258 -41.91080325 204.56267004 -58.25 204.4375 C-58.93220612 204.43479095 -59.61441223 204.43208191 -60.31729126 204.42929077 C-70.75646748 204.36641246 -80.15706005 203.63449962 -90 200 C-91.06476562 199.63777344 -92.12953125 199.27554688 -93.2265625 198.90234375 C-112.63268215 191.65575477 -126.54401696 176.23091941 -135.14746094 157.88183594 C-140.58862752 145.62449803 -143.47871136 132.28474151 -145 119 C-145.11085938 118.12472656 -145.22171875 117.24945313 -145.3359375 116.34765625 C-147.82763844 92.87852711 -146.14968963 69.21094518 -138 47 C-137.42958984 45.43572266 -137.42958984 45.43572266 -136.84765625 43.83984375 C-127.27797074 19.38398079 -111.3378859 2.20083224 -87.49365234 -8.91064453 C-57.90233738 -21.83765132 -27.31159343 -14.56170952 0 0 Z " fill="#676767" transform="translate(970,168)"/>
<path d="M0 0 C0.74401062 0.00054382 1.48802124 0.00108765 2.25457764 0.00164795 C31.58982491 0.09989057 59.29198393 7.68177163 80.83203125 28.64453125 C105.71948266 54.92672599 112.35218506 88.61943584 111.58886719 123.70703125 C110.53176918 155.44320429 99.92099446 183.95641129 76.75 206.125 C58.84145208 221.56438205 34.71655267 229.36907438 11.2421875 229.61328125 C10.07650238 229.62797203 10.07650238 229.62797203 8.88726807 229.64295959 C-27.25223788 230.00476892 -57.8062722 224.24183448 -84.875 198.375 C-108.69981182 173.25427791 -113.31498949 137.98242324 -112.63183594 104.90429688 C-111.54558352 75.82491736 -100.19503055 46.78327056 -78.984375 26.5234375 C-66.95760452 16.12292844 -52.93357799 9.05715429 -37.75 4.5 C-37.11416992 4.30889648 -36.47833984 4.11779297 -35.82324219 3.92089844 C-24.04677735 0.64205451 -12.15102811 -0.03356169 0 0 Z " fill="#676767" transform="translate(702.5,152.625)"/>
<path d="M0 0 C1.14726059 0.00142502 2.29452118 0.00285004 3.47654724 0.00431824 C4.77451736 0.00124161 6.07248749 -0.00183502 7.40979004 -0.00500488 C8.83235348 0.00189235 10.25491517 0.00915928 11.67747498 0.01676941 C13.12953653 0.01796109 14.58159887 0.0184144 16.03366089 0.01815796 C19.07766033 0.01972312 22.12154221 0.02801593 25.16551208 0.04142761 C29.07544649 0.05843264 32.9852518 0.06224155 36.89521885 0.06148243 C39.89340456 0.06175378 42.89156181 0.06722912 45.88973808 0.07448387 C47.33190127 0.07767498 48.77406768 0.07963897 50.21623421 0.08037758 C52.22749611 0.08253559 54.23874609 0.09206467 56.24998474 0.10197449 C57.96968224 0.10769218 57.96968224 0.10769218 59.72412109 0.11352539 C62.29856873 0.24723816 62.29856873 0.24723816 63.29856873 1.24723816 C63.39561609 2.84236236 63.42228492 4.44180628 63.42161655 6.0398798 C63.4236076 7.08340612 63.42559865 8.12693245 63.42765003 9.20208079 C63.42473719 10.36256149 63.42182435 11.52304218 63.41882324 12.71868896 C63.41967767 13.94052555 63.42053209 15.16236213 63.42141241 16.42122406 C63.42278064 19.82805646 63.41963299 23.23483213 63.41463435 26.64165771 C63.41033329 30.30970441 63.41177602 33.97774922 63.41253662 37.64579773 C63.41306208 44.00605247 63.40991304 50.36629698 63.40429878 56.72654915 C63.39618669 65.92251161 63.39356886 75.11846911 63.39231079 84.31443476 C63.39011981 99.23271253 63.38345849 114.15098484 63.37400818 129.06925964 C63.36483524 143.56470207 63.35775383 158.06014302 63.35350037 172.55558777 C63.35323764 173.44843672 63.35297492 174.34128568 63.35270423 175.26119066 C63.35139924 179.74015732 63.35013552 184.21912399 63.34889233 188.69809067 C63.33851829 225.88114369 63.32089874 263.0641905 63.29856873 300.24723816 C54.72778225 300.27038032 46.15700877 300.28816283 37.58619881 300.29905033 C33.60668461 300.30427505 29.62719174 300.31136526 25.64768982 300.32267761 C21.80923629 300.33352107 17.97080332 300.3395181 14.13233566 300.3421154 C12.66587373 300.34396701 11.19941296 300.3475826 9.73295975 300.35296822 C7.6833526 300.36019799 5.63383104 300.36122828 3.58421326 300.36076355 C2.41617157 300.36298416 1.24812988 300.36520477 0.04469299 300.36749268 C-2.70143127 300.24723816 -2.70143127 300.24723816 -4.70143127 299.24723816 C-4.74716829 261.44524292 -4.7824299 223.64325183 -4.80356193 185.84123454 C-4.80606347 181.38249352 -4.8086521 176.92375254 -4.81129456 172.4650116 C-4.81181918 171.57732363 -4.8123438 170.68963566 -4.81288432 169.77504806 C-4.82159661 155.38513611 -4.8373711 140.99524007 -4.85573687 126.60533758 C-4.87441301 111.84962699 -4.88554315 97.09392476 -4.88960826 82.33820283 C-4.89235808 73.22669067 -4.90105578 64.11522348 -4.91726421 55.00372516 C-4.92780291 48.7630827 -4.931039 42.52246364 -4.92843403 36.28181292 C-4.92714786 32.67655988 -4.92917558 29.07138564 -4.93984222 25.46614647 C-4.95130041 21.56507321 -4.94742919 17.66410407 -4.94194031 13.76301575 C-4.94776599 12.61322979 -4.95359167 11.46344383 -4.95959389 10.27881587 C-4.9556118 9.24026528 -4.9516297 8.2017147 -4.94752693 7.13169289 C-4.94828637 6.23023682 -4.94904581 5.32878076 -4.94982827 4.40000784 C-4.55278682 0.95898875 -3.34719055 0.30633881 0 0 Z " fill="#676767" transform="translate(500.70143127441406,75.75276184082031)"/>
<path d="M0 0 C9.8058231 7.96134966 14.70812043 18.51167865 17.72265625 30.52734375 C17.91029541 31.25099121 18.09793457 31.97463867 18.29125977 32.72021484 C20.24088053 41.5442661 20.05959979 50.48754014 20.03833008 59.47753906 C20.03517867 62.25756396 20.05866345 65.03651285 20.08398438 67.81640625 C20.14989446 86.29625666 18.41697394 104.58427458 4.91015625 118.46875 C-3.33737904 126.23026982 -12.31724088 128.01360417 -23.38110352 127.8762207 C-33.89765079 127.51177974 -41.9902609 124.01403799 -50.27734375 117.52734375 C-64.90507699 101.42341725 -66.20953377 75.85432838 -65.43408203 55.17431641 C-64.3133398 36.24738914 -60.85477904 15.66634728 -46.34765625 2.1796875 C-33.61375202 -7.98340965 -13.65006788 -8.8268878 0 0 Z " fill="#FDFDFD" transform="translate(724.27734375,206.47265625)"/>
<path d="M0 0 C3.07382879 3.3319245 2.47059231 7.08045797 2.46943665 11.45478821 C2.49199776 12.90402428 2.49199776 12.90402428 2.51501465 14.38253784 C2.55819201 17.58413447 2.57079839 20.78490591 2.57954407 23.98677063 C2.59493259 26.21013707 2.6107825 28.43350036 2.6270752 30.65686035 C2.65556646 35.32166929 2.66694723 39.98618586 2.6686554 44.65107727 C2.67383571 50.62742825 2.73879152 56.60149282 2.81894398 62.57724476 C2.87094422 67.17128828 2.8822168 71.76477998 2.88216209 76.35909081 C2.88872851 78.56197549 2.91002654 80.76486747 2.94634438 82.96746254 C2.99284899 86.05214401 2.98229517 89.13168375 2.9577179 92.21650696 C2.9837912 93.12529602 3.0098645 94.03408508 3.03672791 94.97041321 C2.95239272 98.89771928 2.81698023 101.1229342 -0.09440041 103.91821861 C-4.10689838 106.64549123 -8.27019084 108.79511472 -12.87748718 110.34223938 C-14.20006531 110.8005011 -14.20006531 110.8005011 -15.54936218 111.26802063 C-27.57176144 114.82009314 -42.37794103 114.75535351 -53.51420593 108.74067688 C-63.28322213 102.70164868 -68.91848967 94.42152883 -71.84623718 83.29927063 C-76.55623753 59.29904829 -74.8658366 34.70043736 -62.57279968 13.32661438 C-56.43418469 4.34774469 -45.94616959 -1.43052866 -35.42045593 -3.57182312 C-23.65848599 -4.99497963 -10.96403997 -5.00025397 0 0 Z " fill="#FDFDFD" transform="translate(967.1274871826172,206.9702606201172)"/>
<path d="M0 0 C0.83557434 -0.00630432 1.67114868 -0.01260864 2.53204346 -0.019104 C3.44024841 -0.01505554 4.34845337 -0.01100708 5.28417969 -0.00683594 C6.22477234 -0.00874939 7.16536499 -0.01066284 8.13446045 -0.01263428 C10.13521592 -0.01399829 12.13598017 -0.01028686 14.13671875 -0.00195312 C17.15223022 0.00860069 20.16712614 -0.00176596 23.18261719 -0.01464844 C56.29746875 -0.04228964 56.29746875 -0.04228964 68.37402344 10.33691406 C75.69021312 17.95961078 77.47430849 25.91268079 77.33105469 36.25878906 C77.34265625 37.09667969 77.35425781 37.93457031 77.36621094 38.79785156 C77.32149901 48.42582093 74.80511993 55.36307 68.10058594 62.32128906 C55.70473249 73.52045721 36.33171102 72.83077402 20.72338867 72.61547852 C17.47201203 72.57064731 14.22137683 72.5539119 10.96972656 72.54199219 C8.90396052 72.5285957 6.83820364 72.51368048 4.77246094 72.49707031 C3.79974747 72.48968338 2.827034 72.48229645 1.82484436 72.47468567 C0.93558762 72.46185043 0.04633087 72.4490152 -0.86987305 72.43579102 C-1.65434311 72.42594681 -2.43881317 72.4161026 -3.24705505 72.40596008 C-5.04394531 72.25878906 -5.04394531 72.25878906 -6.04394531 71.25878906 C-6.14873438 69.12221864 -6.18251185 66.98214569 -6.18920898 64.84301758 C-6.1925676 64.17308777 -6.19592621 63.50315796 -6.1993866 62.81292725 C-6.20892252 60.58783132 -6.21084103 58.36281043 -6.21191406 56.13769531 C-6.21512484 54.59691842 -6.21848878 53.05614184 -6.22200012 51.5153656 C-6.22799803 48.28131401 -6.22983935 45.04728918 -6.22924805 41.81323242 C-6.22914639 37.66231386 -6.24279885 33.51156623 -6.26002026 29.36068821 C-6.27112071 26.17717191 -6.27316786 22.99369718 -6.27263832 19.8101635 C-6.27382139 18.27950387 -6.27826134 16.74884326 -6.28597069 15.21820259 C-6.2957313 13.07999718 -6.29290837 10.94216608 -6.28686523 8.80395508 C-6.28829025 7.58563492 -6.28971527 6.36731476 -6.29118347 5.11207581 C-5.89871225 0.58270651 -4.14428738 0.00897204 0 0 Z " fill="#FDFDFD" transform="translate(317.0439453125,250.7412109375)"/>
<path d="M0 0 C0.73948883 0.00091141 1.47897766 0.00182281 2.24087524 0.00276184 C3.3925267 -0.00366585 3.3925267 -0.00366585 4.56744385 -0.01022339 C6.19995133 -0.01597653 7.83248446 -0.01645973 9.46499634 -0.01213074 C11.92331037 -0.00901288 14.38037018 -0.03226693 16.83853149 -0.05778503 C28.48467076 -0.10521158 41.43138309 0.05646837 50.59243774 8.30354309 C58.07075418 17.56058953 58.424239 27.90447082 57.59243774 39.30354309 C56.5150213 46.48305451 53.14725488 50.77328112 47.59243774 55.30354309 C37.47840225 62.63621882 23.77758639 61.46750234 11.86929321 61.43391418 C9.56991175 61.42848995 7.27072001 61.43391941 4.97134399 61.44026184 C3.51170815 61.43960215 2.05207242 61.43832326 0.59243774 61.43635559 C-0.0960022 61.43837982 -0.78444214 61.44040405 -1.4937439 61.44248962 C-6.29256699 61.41853836 -6.29256699 61.41853836 -7.40756226 60.30354309 C-7.51179162 58.50390649 -7.54610327 56.70017709 -7.55282593 54.89753723 C-7.55920578 53.74286453 -7.56558563 52.58819183 -7.57215881 51.39852905 C-7.57327164 50.14128525 -7.57438446 48.88404144 -7.57553101 47.58869934 C-7.57885941 46.30748703 -7.58218781 45.02627472 -7.58561707 43.70623779 C-7.59161417 40.99004779 -7.59345638 38.27388964 -7.59286499 35.55769348 C-7.59276335 32.07263717 -7.60641441 28.58778454 -7.6236372 25.10277653 C-7.63741292 21.78558076 -7.6368455 18.46842339 -7.63803101 15.15119934 C-7.64521652 13.89597977 -7.65240204 12.64076019 -7.6598053 11.34750366 C-7.65672867 10.1896788 -7.65365204 9.03185394 -7.65048218 7.83894348 C-7.6519072 6.81603714 -7.65333221 5.7931308 -7.65480042 4.73922729 C-7.15511717 -0.18343752 -4.28257974 0.05986769 0 0 Z " fill="#FDFDFD" transform="translate(318.4075622558594,140.6964569091797)"/>
<path d="M0 0 C0.66 0.33 1.32 0.66 2 1 C0.92173635 2.27513763 -0.16285519 3.54492569 -1.25 4.8125 C-1.85328125 5.52019531 -2.4565625 6.22789063 -3.078125 6.95703125 C-4.92370398 8.91889671 -6.79945332 10.45669625 -9 12 C-9.66 11.67 -10.32 11.34 -11 11 C-7.37 7.37 -3.74 3.74 0 0 Z " fill="#FB9146" transform="translate(195,35)"/>
<path d="M0 0 C3 1 3 1 3 1 Z " fill="#FDFDFD" transform="translate(1006,532)"/>
<path d="" fill="#FDFDFD" transform="translate(0,0)"/>
<path d="" fill="#FDFDFD" transform="translate(0,0)"/>
<path d="" fill="#FB6E09" transform="translate(0,0)"/>
<path d="" fill="#FDFDFD" transform="translate(0,0)"/>
<path d="" fill="#FB6E09" transform="translate(0,0)"/>
<path d="" fill="#FDFDFD" transform="translate(0,0)"/>
<path d="" fill="#FB6E09" transform="translate(0,0)"/>
<path d="" fill="#FB6E09" transform="translate(0,0)"/>
<path d="" fill="#FB6E09" transform="translate(0,0)"/>
<path d="" fill="#FDFDFD" transform="translate(0,0)"/>
<path d="" fill="#FB6E09" transform="translate(0,0)"/>
<path d="" fill="#FB6E09" transform="translate(0,0)"/>
<path d="" fill="#FB6E09" transform="translate(0,0)"/>
<path d="" fill="#FDFDFD" transform="translate(0,0)"/>
<path d="" fill="#FB6E09" transform="translate(0,0)"/>
<path d="" fill="#FDFDFD" transform="translate(0,0)"/>
<path d="" fill="#FDFDFD" transform="translate(0,0)"/>
<path d="" fill="#FB6E09" transform="translate(0,0)"/>
<path d="" fill="#FB6E09" transform="translate(0,0)"/>
<path d="" fill="#FB6E09" transform="translate(0,0)"/>
<path d="" fill="#FB6E09" transform="translate(0,0)"/>
<path d="" fill="#FB6E09" transform="translate(0,0)"/>
<path d="" fill="#FB6E09" transform="translate(0,0)"/>
<path d="" fill="#FB6E09" transform="translate(0,0)"/>
</svg>
